<svg xmlns="http://www.w3.org/2000/svg" width="19.466" height="23.116" viewBox="0 0 19.466 23.116">
  <path id="Path_3427" data-name="Path 3427" d="M11.3,4.217h4.866a.608.608,0,1,0,0-1.217H11.3a.608.608,0,1,0,0,1.217Zm9.725,5.734L22.679,8.3a.608.608,0,0,0-.86-.86L20.165,9.091a9.693,9.693,0,0,0-12.863,0L5.647,7.436a.608.608,0,0,0-.86.86L6.441,9.951a9.733,9.733,0,1,0,14.584,0ZM13.733,24.9a8.515,8.515,0,0,1-6.038-14.52c.006-.006.014-.008.02-.014s.008-.014.013-.02a8.507,8.507,0,0,1,12.018.014l.01.01A8.512,8.512,0,0,1,13.733,24.9Zm.608-10.23V12.125a.608.608,0,1,0-1.217,0V14.67a1.825,1.825,0,1,0,1.217,0Z" transform="translate(-4 -3)" fill="#db0707"/>
</svg>
