<svg xmlns="http://www.w3.org/2000/svg" width="21.494" height="19.643" viewBox="0 0 21.494 19.643">
  <path id="download" d="M20.747,25.267a.816.816,0,0,1-.4-.1,1.476,1.476,0,0,1-.326-.249l-4.145-4.145a.491.491,0,0,1-.192-.4.607.607,0,0,1,.192-.441.56.56,0,0,1,.844,0l3.454,3.454V9.914a.6.6,0,0,1,.173-.441.552.552,0,0,1,.4-.173.536.536,0,0,1,.422.173.64.64,0,0,1,.154.441V23.386l3.454-3.454a.56.56,0,0,1,.844,0,.5.5,0,0,1,0,.844l-4.145,4.145a1.476,1.476,0,0,1-.326.249A.816.816,0,0,1,20.747,25.267Zm-8.636,3.676A2.1,2.1,0,0,1,10,26.832V23.339a.536.536,0,0,1,.173-.422.64.64,0,0,1,.441-.154.588.588,0,0,1,.4.154.536.536,0,0,1,.173.422v3.493a.991.991,0,0,0,.921.921H29.383a.991.991,0,0,0,.921-.921V23.339a.536.536,0,0,1,.173-.422.64.64,0,0,1,.441-.154.588.588,0,0,1,.4.154.536.536,0,0,1,.173.422v3.493a2.1,2.1,0,0,1-2.111,2.111Z" transform="translate(-10 -9.3)" fill="#2062b3"/>
</svg>
