<svg xmlns="http://www.w3.org/2000/svg" xmlns:xlink="http://www.w3.org/1999/xlink" width="113.09" height="54.601" viewBox="0 0 113.09 54.601">
  <defs>
    <linearGradient id="linear-gradient" x1="-1.542" y1="7.682" x2="-1.542" y2="8.682" gradientUnits="objectBoundingBox">
      <stop offset="0" stop-color="#9b9d9d"/>
      <stop offset="1" stop-color="#1b4b5f"/>
    </linearGradient>
  </defs>
  <g id="Layer_1_2_-8" data-name="Layer 1 2 -8" transform="translate(-6.4 -6.75)">
    <path id="path4013" d="M106.395,36.75a3.557,3.557,0,1,1-3.558,3.557,3.585,3.585,0,0,1,3.558-3.557m-21.675,0a3.557,3.557,0,1,1-3.557,3.557A3.583,3.583,0,0,1,84.72,36.75Zm-21.675,0a3.557,3.557,0,1,1-3.557,3.557A3.583,3.583,0,0,1,63.045,36.75Zm-21.676,0a3.673,3.673,0,0,1,3.641,3.64,3.558,3.558,0,0,1-7.115,0,3.483,3.483,0,0,1,3.475-3.64Zm-21.674,0a3.557,3.557,0,1,1-3.558,3.557A3.64,3.64,0,0,1,19.7,36.75Zm82.4,11L95.64,44.03l-6.454,3.723V59.169H80.418V47.753L73.965,44.03l-6.453,3.723V59.169h-8.77V47.753L52.29,44.03l-6.453,3.723V59.169h-8.77V47.753L30.614,44.03l-6.452,3.723V59.169H15.393V47.753l-7.28-4.219A1.76,1.76,0,1,1,9.85,40.473l9.927,5.708,9.927-5.708a1.883,1.883,0,0,1,.909-.248,1.671,1.671,0,0,1,.911.248l9.927,5.708,9.927-5.708a1.881,1.881,0,0,1,.91-.248,1.665,1.665,0,0,1,.909.248l9.927,5.708,9.927-5.708a1.889,1.889,0,0,1,.911-.248,1.665,1.665,0,0,1,.909.248L84.8,46.181l9.927-5.708a1.891,1.891,0,0,1,.911-.248,1.67,1.67,0,0,1,.91.248l9.927,5.708,9.927-5.708a1.76,1.76,0,1,1,1.736,3.061l-7.28,4.219V59.169h-8.768V47.753Z" transform="translate(-0.141 -5.181)" fill="url(#linear-gradient)"/>
    <path id="path4015" d="M67.07,14.03a85.478,85.478,0,0,0,9.6-.579l-.165-.165A14.822,14.822,0,0,0,67.07,8.4V14.03Zm-11.251-.579c2.9.331,6.2.5,9.6.579V8.4a15.02,15.02,0,0,0-9.432,4.881c-.082.083-.082.165-.165.165Zm9.6,2.234a74.7,74.7,0,0,1-10.921-.745,37.079,37.079,0,0,0-4.136,6.7,142.464,142.464,0,0,0,15.057.827ZM77.99,14.94a107.979,107.979,0,0,1-10.92.745v6.784a142.46,142.46,0,0,0,15.057-.827A32.961,32.961,0,0,0,77.99,14.94ZM47.38,11.879A36.666,36.666,0,0,0,53.833,13.2a12.864,12.864,0,0,0,.993-1.075A18.3,18.3,0,0,1,58.879,8.9a53.36,53.36,0,0,0-11.5,2.978Zm-12,6.784A68.4,68.4,0,0,0,47.71,21.31c.332.083.663.083.993.165a35.741,35.741,0,0,1,3.971-6.784,37.171,37.171,0,0,1-7.28-1.82.292.292,0,0,1-.165-.083l-1.489.745a40.363,40.363,0,0,0-8.355,5.129Zm51.954-5.874c-.083,0-.083.083-.166.083a37.145,37.145,0,0,1-7.279,1.82,33.289,33.289,0,0,1,3.97,6.784,4.159,4.159,0,0,0,.994-.165,68.411,68.411,0,0,0,12.327-2.647,44.634,44.634,0,0,0-8.273-5.129A13.626,13.626,0,0,0,87.338,12.789ZM73.688,8.9a20.42,20.42,0,0,1,4.054,3.226,12.718,12.718,0,0,1,.992,1.075,48.848,48.848,0,0,0,6.454-1.324A54.67,54.67,0,0,0,73.688,8.9ZM66.242,6.75a54.512,54.512,0,0,1,23.329,5.212A42.934,42.934,0,0,1,106.7,26.357a.838.838,0,0,1-1.406.91,40.719,40.719,0,0,0-6.7-7.446,58.185,58.185,0,0,1-13.567,3.061c-.165,0-.332.083-.5.083.5,1.158.911,2.316,1.324,3.557a.838.838,0,0,1-1.573.579c-.414-1.324-.909-2.647-1.406-3.888a135.482,135.482,0,0,1-15.8.91v2.73a.827.827,0,1,1-1.655,0v-2.73a132.971,132.971,0,0,1-15.718-.91c-.5,1.241-.994,2.482-1.407,3.888a.837.837,0,1,1-1.571-.579c.414-1.241.827-2.4,1.324-3.557-.166,0-.332-.083-.5-.083a66.735,66.735,0,0,1-13.567-3.061,40.744,40.744,0,0,0-6.7,7.446.838.838,0,1,1-1.406-.91A43.941,43.941,0,0,1,42.912,11.962,54.788,54.788,0,0,1,66.242,6.75Z" transform="translate(-3.339)" fill="#9c9d9d"/>
    <path id="path4017" d="M16.989,55.663l-.248,1.075s-.827-1.324-4.055-1.324c-3.639,0-6.287,2.234-6.287,5.046s2.482,4.716,5.873,4.716S16.409,64.1,16.409,64.1c.084,4.136-7.61,1.572-7.61,1.572L7.558,68.486s1.9.827,6.369.827c1.076,0,3.806-.083,5.544-1.324a4,4,0,0,0,1.9-3.226c.166-2.234.166-9.1.166-9.1Zm-2.9,6.784c-.827,0-2.482-.579-2.482-1.985a2.445,2.445,0,0,1,2.482-2.4c2.068,0,2.068,1.572,2.068,2.4A1.863,1.863,0,0,1,14.094,62.447Zm7.942-6.618.083,9.348H27.5V59.551s.082-1.158,1.736-1.158A1.468,1.468,0,0,1,30.887,59.8v5.46h5.047V59.634s.083-1.158,1.819-1.158a1.555,1.555,0,0,1,1.655,1.655v5.212h5.047V59.634s.33-3.971-5.047-3.971a7.216,7.216,0,0,0-4.55,1.572S33.949,55.58,30.8,55.58s-4.22,1.572-4.22,1.572l-.165-1.324ZM58.849,59.22c0-2.978-3.309-3.806-6.948-3.806a13.9,13.9,0,0,0-5.543.91l.909,2.316a11.944,11.944,0,0,1,3.475-.662c3.971,0,3.062.827,3.062.827-7.612,0-8.273,2.4-8.273,3.971s2.15,2.813,4.881,2.813,3.806-1.158,3.806-1.158l.247.91h4.716s-.332-3.144-.332-6.122Zm-6.618,3.723c-.827,0-1.655-.248-1.655-.745,0-1.489,3.393-1.406,3.393-1.406s.248,2.151-1.738,2.151Zm8.6-9.1,5.046-.993v2.73h2.9v2.73h-2.9v2.73c0,1.241.911,1.406,1.82,1.406a4.991,4.991,0,0,0,1.075-.083v2.73s-.33.331-3.474.331-4.467-1.572-4.467-4.219V58.393H59.1v-2.73h1.737v-1.82Z" transform="translate(0 -7.962)" fill="#2a2a2a"/>
    <path id="path4019" d="M95.688,51.05H100.9V64.866H95.688Zm6.039,4.219h5.211v4.8s-.165,2.068,1.655,2.068a2.022,2.022,0,0,0,2.152-1.324l.083-5.46h5.295v9.6h-4.385l-.33-1.324s-1.075,1.489-4.716,1.489-4.964-2.234-4.964-4.219V55.269Zm24.57.165a6.512,6.512,0,0,0-4.136,1.241V51.381H116.95V64.948h4.385l.165-1.241s1.157,1.572,4.385,1.572c2.812,0,6.784-1.324,6.784-5.046s-3.64-4.8-6.37-4.8Zm-1.406,6.949c-1.407,0-2.648-.331-2.648-2.316a2.259,2.259,0,0,1,2.4-2.316c1.655,0,2.73.91,2.73,2.316A2.305,2.305,0,0,1,124.892,62.384Zm-32.512,0c-2.979,0-4.3-1.075-4.3-2.316S89.07,58,91.468,58a11.244,11.244,0,0,1,2.4.248l.745-2.647a26.748,26.748,0,0,0-3.888-.5c-4.468,0-8.025,1.572-8.025,5.295,0,2.068,2.4,4.964,7.941,4.964a13.306,13.306,0,0,0,3.972-.579l-.5-2.565a5.63,5.63,0,0,1-1.736.165Z" transform="translate(-13.178 -7.651)" fill="#ee7c00"/>
  </g>
</svg>
