<svg xmlns="http://www.w3.org/2000/svg" width="31.832" height="31.624" viewBox="0 0 31.832 31.624">
  <g id="Group_963" data-name="Group 963" transform="translate(0.707 0.5)">
    <g id="Group_961" data-name="Group 961" transform="translate(0 0)">
      <path id="Path_578" data-name="Path 578" d="M165.129-591.5a.529.529,0,0,1,.559.491.529.529,0,0,1-.559.491H150.3a.529.529,0,0,1-.559-.491.529.529,0,0,1,.559-.491Z" transform="translate(-142.449 598.863)" fill="#42526e"/>
      <path id="Path_579" data-name="Path 579" d="M164.9-585.534a.529.529,0,0,1,.559.491.529.529,0,0,1-.559.491H150.068a.529.529,0,0,1-.559-.491.529.529,0,0,1,.559-.491Z" transform="translate(-142.332 595.822)" fill="#42526e"/>
    </g>
    <g id="Group_962" data-name="Group 962" transform="translate(0 0)">
      <path id="Path_583" data-name="Path 583" d="M185.672-585.5l-4.754,4.1-6.039,5.22" transform="translate(-155.255 595.807)" fill="none" stroke="#42526e" stroke-linecap="round" stroke-linejoin="round" stroke-width="1"/>
      <path id="Path_584" data-name="Path 584" d="M160.39-592.5l4.906,3.434v20.115H134.879V-589.07l4.906-3.434" transform="translate(-134.879 599.373)" fill="none" stroke="#42526e" stroke-linecap="round" stroke-linejoin="round" stroke-width="1"/>
      <path id="Path_585" data-name="Path 585" d="M153.879-602.579l5.887-3.925,5.887,3.925" transform="translate(-144.558 606.504)" fill="none" stroke="#42526e" stroke-linecap="round" stroke-linejoin="round" stroke-width="1"/>
      <path id="Path_586" data-name="Path 586" d="M165.3-557.239,154.5-568.032l-1.472-1.472h-5.887l-1.472,1.472-10.793,10.793" transform="translate(-134.879 587.657)" fill="none" stroke="#42526e" stroke-linecap="round" stroke-linejoin="round" stroke-width="1"/>
      <path id="Path_587" data-name="Path 587" d="M134.879-585.5l4.754,4.1,6.039,5.22" transform="translate(-134.879 595.807)" fill="none" stroke="#42526e" stroke-linecap="round" stroke-linejoin="round" stroke-width="1"/>
      <path id="Path_588" data-name="Path 588" d="M144.879-588.2v-9.322a.981.981,0,0,1,.981-.981H164.5a.984.984,0,0,1,.981.981v9.322" transform="translate(-139.973 602.429)" fill="none" stroke="#42526e" stroke-linecap="round" stroke-linejoin="round" stroke-width="1"/>
    </g>
  </g>
</svg>
