<svg xmlns="http://www.w3.org/2000/svg" width="37.35" height="23.022" viewBox="0 0 37.35 23.022">
  <g id="Group_2107" data-name="Group 2107" transform="translate(-96.002 -835.104)">
    <path id="Subtraction_6" data-name="Subtraction 6" d="M21781.492-12743.993h-22.9a2.6,2.6,0,0,1-2.586-2.6v-19.913a.523.523,0,0,1,.2-.405l.012,0h.006l.006-.006a.049.049,0,0,1,.016-.011c.006,0,.006,0,.006-.006a.558.558,0,0,1,.246-.065h32.48a.537.537,0,0,1,.4.2.64.64,0,0,1,.061.109s0,0,.006,0l0,.006.008.006v.011a.408.408,0,0,1,.027.164v7.547h-1v-6.541l-15.434,11.731a.5.5,0,0,1-.307.1.45.45,0,0,1-.3-.1l-15.439-11.726v18.9a1.6,1.6,0,0,0,1.592,1.6h22.9v1ZM21757.98-12766h0l14.756,11.212,14.756-11.212Z" transform="translate(-21660 13602.105)" fill="#e66f07"/>
    <path id="Intersection_1" data-name="Intersection 1" d="M21780.475-12745a1.308,1.308,0,0,1-.941-.371,1.223,1.223,0,0,1-.393-.925v-4.714a1.128,1.128,0,0,1,.453-.919,1.68,1.68,0,0,1,1.115-.377v-1.844a2.763,2.763,0,0,1,.844-2.045,2.82,2.82,0,0,1,2.023-.826,2.783,2.783,0,0,1,2.045.826,2.77,2.77,0,0,1,.826,2.045v1.844a1.685,1.685,0,0,1,1.121.377,1.138,1.138,0,0,1,.447.919v4.714a1.263,1.263,0,0,1-.371.925,1.191,1.191,0,0,1-.887.371Zm1.8-10.445a1.79,1.79,0,0,0-.547,1.3v1.844h3.691v-1.844a1.785,1.785,0,0,0-.531-1.317,1.775,1.775,0,0,0-1.316-.53A1.778,1.778,0,0,0,21782.279-12755.448Z" transform="translate(-21654.664 13603.129)" fill="#e66f07"/>
  </g>
</svg>
