<svg xmlns="http://www.w3.org/2000/svg" width="22.394" height="20.804" viewBox="0 0 22.394 20.804">
  <g id="Group_1746" data-name="Group 1746" transform="translate(-397.35 -543.401)">
    <path id="Path_671" data-name="Path 671" d="M52.6,93.747v1.868h-.747v.56H51.2l-.205.43a.846.846,0,0,1-1.531,0l-.205-.43h-.766v-.56h-.747V93.747H52.6M52.92,93H47.542c-.317.187-.542.318-.542.654v2.018a.648.648,0,0,0,.579.691h.205c0,.374.205.56.467.56h.5a1.585,1.585,0,0,0,1.457.953,1.605,1.605,0,0,0,1.457-.953h.523c.261,0,.467-.187.467-.56h.205c.355,0,.467-.336.467-.691V93.654C53.349,93.318,53.218,93,52.92,93Z" transform="translate(353.798 466.329)" fill="#2062b3"/>
    <path id="Path_672" data-name="Path 672" d="M35.216,12.747a5.952,5.952,0,0,1,4.146,10.089,7.952,7.952,0,0,0-2.017,3.176H33.087a9.491,9.491,0,0,0-2.035-3.176,5.734,5.734,0,0,1,0-8.276,5.7,5.7,0,0,1,4.164-1.812m0-.747a6.436,6.436,0,0,0-4.706,2.055,6.472,6.472,0,0,0,.019,9.323,7.314,7.314,0,0,1,2,3.382h5.359V26.8a7.527,7.527,0,0,1,2-3.4,6.478,6.478,0,0,0,.019-9.341A6.466,6.466,0,0,0,35.216,12Z" transform="translate(368.813 532.196)" fill="#2062b3"/>
    <circle id="Ellipse_51" data-name="Ellipse 51" cx="6.396" cy="6.396" r="6.396" transform="translate(406.952 545.865)" fill="#2062b3"/>
    <text id="_" data-name="!" transform="translate(413.001 556.401)" fill="#fff" font-size="12" font-family="Poppins-Regular, Poppins"><tspan x="-1" y="0">!</tspan></text>
  </g>
</svg>
