<svg xmlns="http://www.w3.org/2000/svg" width="37.124" height="36.5" viewBox="0 0 37.124 36.5">
  <g id="Group_1744" data-name="Group 1744" transform="translate(-90.5 -1451.6)">
    <g id="Group_963" data-name="Group 963" transform="translate(96.5 1452.1)">
      <g id="Group_961" data-name="Group 961" transform="translate(0 0)">
        <path id="Path_578" data-name="Path 578" d="M165.129-591.5a.529.529,0,0,1,.559.491.529.529,0,0,1-.559.491H150.3a.529.529,0,0,1-.559-.491.529.529,0,0,1,.559-.491Z" transform="translate(-142.449 598.863)" fill="#42526e"/>
        <path id="Path_579" data-name="Path 579" d="M164.9-585.534a.529.529,0,0,1,.559.491.529.529,0,0,1-.559.491H150.068a.529.529,0,0,1-.559-.491.529.529,0,0,1,.559-.491Z" transform="translate(-142.332 595.822)" fill="#42526e"/>
      </g>
      <g id="Group_962" data-name="Group 962" transform="translate(0 0)">
        <path id="Path_583" data-name="Path 583" d="M185.672-585.5l-4.754,4.1-6.039,5.22" transform="translate(-155.255 595.807)" fill="none" stroke="#42526e" stroke-linecap="round" stroke-linejoin="round" stroke-width="1"/>
        <path id="Path_584" data-name="Path 584" d="M160.39-592.5l4.906,3.434v20.115H134.879V-589.07l4.906-3.434" transform="translate(-134.879 599.373)" fill="none" stroke="#42526e" stroke-linecap="round" stroke-linejoin="round" stroke-width="1"/>
        <path id="Path_585" data-name="Path 585" d="M153.879-602.579l5.887-3.925,5.887,3.925" transform="translate(-144.558 606.504)" fill="none" stroke="#42526e" stroke-linecap="round" stroke-linejoin="round" stroke-width="1"/>
        <path id="Path_586" data-name="Path 586" d="M165.3-557.239,154.5-568.032l-1.472-1.472h-5.887l-1.472,1.472-10.793,10.793" transform="translate(-134.879 587.657)" fill="none" stroke="#42526e" stroke-linecap="round" stroke-linejoin="round" stroke-width="1"/>
        <path id="Path_587" data-name="Path 587" d="M134.879-585.5l4.754,4.1,6.039,5.22" transform="translate(-134.879 595.807)" fill="none" stroke="#42526e" stroke-linecap="round" stroke-linejoin="round" stroke-width="1"/>
        <path id="Path_588" data-name="Path 588" d="M144.879-588.2v-9.322a.981.981,0,0,1,.981-.981H164.5a.984.984,0,0,1,.981.981v9.322" transform="translate(-139.973 602.429)" fill="none" stroke="#42526e" stroke-linecap="round" stroke-linejoin="round" stroke-width="1"/>
      </g>
    </g>
    <g id="Group_1161" data-name="Group 1161" transform="translate(6.5 798.1)">
      <circle id="Ellipse_53" data-name="Ellipse 53" cx="6" cy="6" r="6" transform="translate(84 678)" fill="#42526e"/>
      <g id="Group_1161-2" data-name="Group 1161" transform="translate(87.016 681.166)">
        <path id="Path_638" data-name="Path 638" d="M3.279.192l.665,1.334a.332.332,0,0,0,.25.18l1.49.217a.334.334,0,0,1,.22.128.323.323,0,0,1,.063.243.33.33,0,0,1-.1.188L4.791,3.53a.316.316,0,0,0-.1.288L4.961,5.29a.333.333,0,0,1-.266.379.349.349,0,0,1-.213-.034L3.152,4.942a.349.349,0,0,0-.314,0l-1.331.693A.341.341,0,0,1,1.049,5.5a.338.338,0,0,1-.035-.209L1.281,3.82a.316.316,0,0,0-.1-.288L.1,2.486a.323.323,0,0,1,0-.466A.324.324,0,0,1,.3,1.926l1.49-.217a.332.332,0,0,0,.25-.18L2.678.192a.331.331,0,0,1,.3-.183h.04A.332.332,0,0,1,3.279.192Z" transform="translate(-0.004 -0.006)" fill="#fff"/>
        <path id="Path_639" data-name="Path 639" d="M2.986,4.9a.362.362,0,0,0-.165.045l-1.326.691A.347.347,0,0,1,1.045,5.5a.327.327,0,0,1-.035-.207l.266-1.47a.329.329,0,0,0-.1-.29L.1,2.482a.326.326,0,0,1,0-.466.34.34,0,0,1,.189-.094l1.5-.22a.324.324,0,0,0,.25-.18L2.683.17A.332.332,0,0,1,2.988,0C2.986.092,2.986,4.836,2.986,4.9Z" transform="translate(0 0)" fill="#fff"/>
      </g>
    </g>
  </g>
</svg>
