<svg xmlns="http://www.w3.org/2000/svg" width="32" height="32" viewBox="0 0 32 32">
  <g id="Group_1742" data-name="Group 1742" transform="translate(-118 -417)">
    <g id="Ellipse_61" data-name="Ellipse 61" transform="translate(118 417)" fill="#fff" stroke="#e66f07" stroke-width="1">
      <circle cx="16" cy="16" r="16" stroke="none"/>
      <circle cx="16" cy="16" r="15.5" fill="none"/>
    </g>
    <g id="Group_1719" data-name="Group 1719" transform="translate(124.999 424)">
      <path id="Intersection_4" data-name="Intersection 4" d="M4.774,0,5.942,1.213,0,5.967Z" transform="translate(0 11.268)" fill="#a9a9a9"/>
      <path id="Subtraction_27" data-name="Subtraction 27" d="M9.4,16.382a.6.6,0,0,1-.434-.185L5.181,12.411l-.088.07L3.925,11.268l.05-.063L.189,7.419A.606.606,0,0,1,.046,6.75.587.587,0,0,1,.6,6.383H5.181l5.426-3.618L10,1.559V.594A.6.6,0,0,1,11.041.185l5.16,5.16a.607.607,0,0,1,.142.67.588.588,0,0,1-.553.368h-.964l-1.207-.6L10,11.205v4.582a.6.6,0,0,1-.6.595Z" transform="translate(0.849 0)" fill="#e66f07"/>
    </g>
  </g>
</svg>
