<svg xmlns="http://www.w3.org/2000/svg" width="19.82" height="13.508" viewBox="0 0 19.82 13.508">
  <path id="book" d="M15.768,13.866a.305.305,0,0,1,.05-.136.229.229,0,0,1,.124-.112,8.635,8.635,0,0,1,1.635-.545,7.976,7.976,0,0,1,1.784-.2,6.842,6.842,0,0,1,.941.062q.446.062.917.161a.5.5,0,0,1,.161.1.248.248,0,0,1,.087.2.309.309,0,0,1-.111.26.362.362,0,0,1-.285.062,5.274,5.274,0,0,0-.83-.136q-.434-.037-.88-.037a8.852,8.852,0,0,0-1.635.149,6.247,6.247,0,0,0-1.486.471.392.392,0,0,1-.334,0,.308.308,0,0,1-.136-.3Zm0,5.379a.328.328,0,0,1,.05-.161.229.229,0,0,1,.124-.112,5.954,5.954,0,0,1,1.623-.545,9.515,9.515,0,0,1,1.8-.174,6.842,6.842,0,0,1,.941.062q.446.062.917.161a.5.5,0,0,1,.161.1.248.248,0,0,1,.087.2.309.309,0,0,1-.111.26.3.3,0,0,1-.285.037q-.4-.074-.83-.112t-.88-.037a7.883,7.883,0,0,0-1.6.161,6.7,6.7,0,0,0-1.474.483.37.37,0,0,1-.372,0,.359.359,0,0,1-.149-.322Zm0-2.677a.328.328,0,0,1,.05-.161.229.229,0,0,1,.124-.112,6.8,6.8,0,0,1,1.635-.545,9.07,9.07,0,0,1,1.784-.174,8.529,8.529,0,0,1,.941.05q.446.05.917.149a1.7,1.7,0,0,1,.161.124.223.223,0,0,1,.087.173.3.3,0,0,1-.111.273.4.4,0,0,1-.285.05q-.4-.074-.83-.124a7.735,7.735,0,0,0-.88-.05,7.341,7.341,0,0,0-1.6.173,7.193,7.193,0,0,0-1.474.5.37.37,0,0,1-.372,0A.359.359,0,0,1,15.768,16.567ZM8.311,21.128A11.138,11.138,0,0,1,11,21.45a10.628,10.628,0,0,1,2.564,1.016V12.379a8.171,8.171,0,0,0-2.49-1.276,9.136,9.136,0,0,0-2.762-.434,8.233,8.233,0,0,0-1.6.136,13.8,13.8,0,0,0-1.524.409.683.683,0,0,0-.334.235.565.565,0,0,0-.087.31v9.394a.417.417,0,0,0,.186.372.446.446,0,0,0,.409.05,5.183,5.183,0,0,1,1.276-.335A11.5,11.5,0,0,1,8.311,21.128Zm6.02,1.338a10.3,10.3,0,0,1,2.515-1.016,10.837,10.837,0,0,1,2.663-.322,12.028,12.028,0,0,1,1.7.112,8.112,8.112,0,0,1,1.251.26.4.4,0,0,0,.409-.025.442.442,0,0,0,.186-.4V11.759a.565.565,0,0,0-.087-.31.683.683,0,0,0-.334-.235,8.173,8.173,0,0,0-3.122-.545,8.9,8.9,0,0,0-2.738.434,7.912,7.912,0,0,0-2.44,1.276ZM9.153,16.468Zm4.782,6.94a1.078,1.078,0,0,1-.285-.037.69.69,0,0,1-.235-.112,11.341,11.341,0,0,0-2.453-1A9.819,9.819,0,0,0,8.311,21.9a8.5,8.5,0,0,0-1.375.112,12.135,12.135,0,0,0-1.375.31A1.04,1.04,0,0,1,4.5,22.169,1.2,1.2,0,0,1,4,21.153V11.784a1.409,1.409,0,0,1,.211-.744,1.166,1.166,0,0,1,.607-.5,9.025,9.025,0,0,1,1.709-.483A10.016,10.016,0,0,1,8.311,9.9a9.848,9.848,0,0,1,2.961.446,9.641,9.641,0,0,1,2.663,1.314A9.622,9.622,0,0,1,19.509,9.9a10.016,10.016,0,0,1,1.784.161A9.025,9.025,0,0,1,23,10.544a1.166,1.166,0,0,1,.607.5,1.409,1.409,0,0,1,.211.744v9.369a1.168,1.168,0,0,1-.545,1.016,1.093,1.093,0,0,1-1.14.1A11.561,11.561,0,0,0,20.822,22a8.949,8.949,0,0,0-1.313-.1,9.594,9.594,0,0,0-2.614.359,11.415,11.415,0,0,0-2.44,1,.685.685,0,0,1-.248.112,1.13,1.13,0,0,1-.273.037Z" transform="translate(-4 -9.9)" fill="#eb8f45"/>
</svg>
