<svg xmlns="http://www.w3.org/2000/svg" width="15.27" height="13.508" viewBox="0 0 15.27 13.508">
  <path id="Like" d="M9.505,19.98v-8.8L13.9,6.684a.607.607,0,0,1,.353-.2.567.567,0,0,1,.393.06.666.666,0,0,1,.252.3.755.755,0,0,1,.05.443l-.786,3.888h6a1.059,1.059,0,0,1,.765.342,1.081,1.081,0,0,1,.342.786v1.249a.76.76,0,0,1-.04.242l-2.256,5.278a1.433,1.433,0,0,1-.564.645,1.469,1.469,0,0,1-.806.262Zm.6-8.521v7.9h7.635a.768.768,0,0,0,.342-.091.617.617,0,0,0,.282-.312l2.276-5.419V12.3a.5.5,0,0,0-.141-.353.451.451,0,0,0-.342-.151H13.433l.906-4.653Zm-3,8.521a1.053,1.053,0,0,1-.786-.332A1.079,1.079,0,0,1,6,18.872V12.3a1.113,1.113,0,0,1,.322-.786,1.038,1.038,0,0,1,.786-.342h2.4V11.8h-2.4a.443.443,0,0,0-.353.151.522.522,0,0,0-.131.353v6.567a.485.485,0,0,0,.131.342.458.458,0,0,0,.353.141h2.4v.624Zm3-.624v0Z" transform="translate(-6 -6.471)" fill="#eb8f45"/>
</svg>
