<svg xmlns="http://www.w3.org/2000/svg" width="33.477" height="23.004" viewBox="0 0 33.477 23.004">
  <g id="Group_2106" data-name="Group 2106" transform="translate(-95.998 -2091.098)">
    <path id="Subtraction_6" data-name="Subtraction 6" d="M30.477,23H2.6A2.6,2.6,0,0,1,0,20.41V.5A.486.486,0,0,1,.209.1.052.052,0,0,0,.219.087l.006,0A.016.016,0,0,0,.242.071h.01A.561.561,0,0,1,.52,0H32.977a.515.515,0,0,1,.395.2l.006.01a.424.424,0,0,1,.061.1l-.006.012h.012l-.006,0,0,.007h.006A.574.574,0,0,1,33.475.5V12h-1V1.51L17.041,13.238a.469.469,0,0,1-.3.1.5.5,0,0,1-.307-.1L1,1.51v18.9a1.6,1.6,0,0,0,1.6,1.6H30.477v1ZM1.986,1h0L16.74,12.216,31.494,1Z" transform="translate(95.998 2091.098)" fill="#e66f07"/>
    <path id="Path_690" data-name="Path 690" d="M7.772,7.727V5L3,9.772l4.772,4.772v-2.8c3.409,0,5.795,1.091,7.5,3.477C14.59,11.817,12.544,8.409,7.772,7.727Z" transform="translate(114.203 2096.215)" fill="#e66f07"/>
  </g>
</svg>
