<svg xmlns="http://www.w3.org/2000/svg" width="34.476" height="23.024" viewBox="0 0 34.476 23.024">
  <g id="Group_2105" data-name="Group 2105" transform="translate(-95 -2045.588)">
    <g id="Group_2104" data-name="Group 2104">
      <path id="Intersection_1" data-name="Intersection 1" d="M1.334,12.021a1.308,1.308,0,0,1-.941-.371A1.223,1.223,0,0,1,0,10.725V6.011a1.128,1.128,0,0,1,.453-.919,1.68,1.68,0,0,1,1.115-.377V2.871A2.763,2.763,0,0,1,2.412.826,2.82,2.82,0,0,1,4.436,0,2.822,2.822,0,0,1,7.307,2.871V4.715a1.685,1.685,0,0,1,1.121.377,1.138,1.138,0,0,1,.447.919v4.714a1.263,1.263,0,0,1-.371.925,1.191,1.191,0,0,1-.887.371Zm1.8-10.445a1.79,1.79,0,0,0-.547,1.3V4.715H6.283V2.871A1.813,1.813,0,0,0,4.436,1.023,1.778,1.778,0,0,0,3.139,1.575Z" transform="translate(95 2056.592)" fill="#e66f07"/>
      <path id="Subtraction_26" data-name="Subtraction 26" d="M.5,0H32.975a.487.487,0,0,1,.218.049l.007,0c.008,0,.011.006.014.006A.517.517,0,0,1,33.36.18l0,0,0,0,0,.006,0,0,0,.008,0,0a.015.015,0,0,1,0,.008l.008.01a.514.514,0,0,1,.081.256V20.4a2.6,2.6,0,0,1-2.6,2.6H9.976V22h20.9a1.6,1.6,0,0,0,1.6-1.6V1.508L17.039,13.236a.489.489,0,0,1-.3.1.506.506,0,0,1-.3-.1L1,1.508V9.039H0V.518A.508.508,0,0,1,.056.27.5.5,0,0,1,.2.1.49.49,0,0,1,.5,0ZM16.738,12.209h0L31.49,1H1.986L16.738,12.209Z" transform="translate(96 2045.588)" fill="#e66f07"/>
    </g>
  </g>
</svg>
