<svg xmlns="http://www.w3.org/2000/svg" width="32.502" height="32.42" viewBox="0 0 32.502 32.42">
  <g id="Group_2102" data-name="Group 2102" transform="translate(-95.498 -1947.1)">
    <path id="Subtraction_19" data-name="Subtraction 19" d="M24.125,31.42H.5a.5.5,0,0,1-.5-.5V10.8a.511.511,0,0,1,.214-.41L4.906,7.111V5.406a1.482,1.482,0,0,1,1.48-1.479H9.675L15.434.086A.485.485,0,0,1,15.711,0a.5.5,0,0,1,.279.086l5.759,3.842h3.284a1.481,1.481,0,0,1,1.479,1.479V7.111l4.692,3.283a.509.509,0,0,1,.215.41V24.777h-1V11.9l-3.926,3.383L20.859,20.15l2.2,2.2-.724.7-3.889-3.889H12.974L1.708,30.42H22.413l1.709,1ZM1,11.9V29.711l9.557-9.561-5.63-4.869L1,11.9Zm11.765,6.258h5.887a.511.511,0,0,1,.353.143l1.143,1.143,5.368-4.635a.431.431,0,0,1,0-.076V5.406a.481.481,0,0,0-.48-.48H6.387a.481.481,0,0,0-.48.48V14.73a.431.431,0,0,1,0,.076l5.368,4.635L12.412,18.3A.524.524,0,0,1,12.769,18.156ZM26.513,8.328v5.617l3.593-3.1L26.513,8.328ZM4.906,8.334h0L1.313,10.846l3.593,3.1Zm10.8-7.229h0L11.474,3.928h8.472L15.71,1.105ZM23.067,11.77H8.238a.494.494,0,1,1,0-.98H23.067a.537.537,0,0,1,.562.49A.531.531,0,0,1,23.067,11.77Zm.114-2.926H8.353a.537.537,0,0,1-.562-.49.531.531,0,0,1,.562-.49H23.182a.531.531,0,0,1,.562.49A.537.537,0,0,1,23.182,8.844Z" transform="translate(95.998 1947.6)" fill="#42526e" stroke="rgba(0,0,0,0)" stroke-miterlimit="10" stroke-width="1"/>
    <path id="Path_691" data-name="Path 691" d="M7.252,7.43V5L3,9.252,7.252,13.5v-2.49c3.037,0,5.163.972,6.681,3.1C13.326,11.074,11.5,8.037,7.252,7.43Z" transform="translate(114.066 1964.406)" fill="#42526e"/>
  </g>
</svg>
