<svg xmlns="http://www.w3.org/2000/svg" width="10.6" height="14.1" viewBox="0 0 10.6 14.1">
  <g id="Component_60_1987" data-name="Component 60 – 1987" transform="translate(0.05 0.05)">
    <path id="Path_642" data-name="Path 642" d="M.656,14H9.844a.657.657,0,0,0,.656-.656V4.156c0-.007,0-.014,0-.021a.2.2,0,0,0-.006-.028.214.214,0,0,0-.039-.084s0-.009-.006-.013L6.945.074l0,0a.216.216,0,0,0-.1-.059l-.025,0A.22.22,0,0,0,6.781,0H.656A.657.657,0,0,0,0,.656V13.344A.657.657,0,0,0,.656,14ZM7,.794,9.794,3.938H7.219c-.1,0-.219-.184-.219-.328ZM.438.656A.219.219,0,0,1,.656.438H6.563V3.609a.759.759,0,0,0,.656.766h2.844v8.969a.219.219,0,0,1-.219.219H.656a.217.217,0,0,1-.219-.219Z" fill="#a1a1a1" stroke="#a1a1a1" stroke-width="0.1"/>
    <path id="Path_643" data-name="Path 643" d="M5.219,11.188h5.687a.219.219,0,0,0,0-.437H5.219a.219.219,0,0,0,0,.438Zm0,1.75h5.687a.219.219,0,0,0,0-.438H5.219a.219.219,0,0,0,0,.438Zm0-3.5H7.844a.219.219,0,0,0,0-.437H5.219a.219.219,0,0,0,0,.438Zm0,5.25h5.687a.219.219,0,0,0,0-.437H5.219a.219.219,0,0,0,0,.438Zm0,1.75h5.687a.219.219,0,0,0,0-.437H5.219a.219.219,0,0,0,0,.438Z" transform="translate(-2.813 -5.063)" fill="#a1a1a1" stroke="#a1a1a1" stroke-width="0.1"/>
  </g>
</svg>
