<svg xmlns="http://www.w3.org/2000/svg" width="20.787" height="20.783" viewBox="0 0 20.787 20.783">
  <path id="Icon_awesome-instagram" data-name="Icon awesome-instagram" d="M10.391,7.3a5.328,5.328,0,1,0,5.328,5.328A5.32,5.32,0,0,0,10.391,7.3Zm0,8.793a3.464,3.464,0,1,1,3.464-3.464A3.47,3.47,0,0,1,10.391,16.093ZM17.18,7.083A1.243,1.243,0,1,1,15.937,5.84,1.24,1.24,0,0,1,17.18,7.083Zm3.529,1.261A6.15,6.15,0,0,0,19.03,3.989a6.191,6.191,0,0,0-4.355-1.679c-1.716-.1-6.859-.1-8.575,0A6.182,6.182,0,0,0,1.747,3.985,6.171,6.171,0,0,0,.068,8.339c-.1,1.716-.1,6.859,0,8.575a6.15,6.15,0,0,0,1.679,4.355A6.2,6.2,0,0,0,6.1,22.947c1.716.1,6.859.1,8.575,0a6.15,6.15,0,0,0,4.355-1.679,6.191,6.191,0,0,0,1.679-4.355c.1-1.716.1-6.854,0-8.57ZM18.492,18.755a3.507,3.507,0,0,1-1.976,1.976c-1.368.543-4.614.417-6.126.417s-4.763.121-6.126-.417a3.507,3.507,0,0,1-1.976-1.976c-.543-1.368-.417-4.614-.417-6.126S1.751,7.866,2.289,6.5A3.507,3.507,0,0,1,4.265,4.527c1.368-.543,4.614-.417,6.126-.417s4.763-.121,6.126.417A3.507,3.507,0,0,1,18.492,6.5c.543,1.368.417,4.614.417,6.126S19.035,17.392,18.492,18.755Z" transform="translate(0.005 -2.238)" fill="#e66f07"/>
</svg>
