<svg xmlns="http://www.w3.org/2000/svg" width="20.262" height="20.262" viewBox="0 0 20.262 20.262">
  <path id="questions" d="M18.681,16.7a.477.477,0,0,0,.3-.119.471.471,0,0,0,.179-.3,1.984,1.984,0,0,1,.3-.894,5.2,5.2,0,0,1,.894-.924,5.047,5.047,0,0,0,1.013-1.192,2.535,2.535,0,0,0,.3-1.252,2.721,2.721,0,0,0-.849-2.041,2.984,2.984,0,0,0-2.16-.819,3.2,3.2,0,0,0-1.549.387,3.09,3.09,0,0,0-1.162,1.1.455.455,0,0,0,.209.626.538.538,0,0,0,.372.045.5.5,0,0,0,.313-.223,2.189,2.189,0,0,1,.775-.79,2.079,2.079,0,0,1,1.043-.253,2.2,2.2,0,0,1,1.535.551,1.787,1.787,0,0,1,.611,1.386,1.928,1.928,0,0,1-.283,1.028,4.282,4.282,0,0,1-1,1.028,4.043,4.043,0,0,0-.924,1.058,3.346,3.346,0,0,0-.358,1.177.421.421,0,0,0,.119.283A.416.416,0,0,0,18.681,16.7Zm0,3.337a.916.916,0,0,0,.924-.924.858.858,0,0,0-.268-.626.892.892,0,0,0-.656-.268.907.907,0,0,0-.641.268.837.837,0,0,0-.283.626.868.868,0,0,0,.283.656A.907.907,0,0,0,18.681,20.035Zm-7,3.188a1.628,1.628,0,0,1-1.639-1.639V7.639A1.628,1.628,0,0,1,11.678,6H25.624a1.628,1.628,0,0,1,1.639,1.639V21.584a1.628,1.628,0,0,1-1.639,1.639Zm0-.894H25.624a.69.69,0,0,0,.507-.209.726.726,0,0,0,.209-.536V7.639a.712.712,0,0,0-.715-.715H11.678a.726.726,0,0,0-.536.209.69.69,0,0,0-.209.507V21.584a.714.714,0,0,0,.745.745ZM8.639,26.262A1.628,1.628,0,0,1,7,24.624V10.231a.459.459,0,0,1,.477-.477.429.429,0,0,1,.313.134.464.464,0,0,1,.134.343V24.624a.712.712,0,0,0,.715.715H23.031a.459.459,0,0,1,.477.477.429.429,0,0,1-.134.313.464.464,0,0,1-.343.134ZM10.933,6.924v0Z" transform="translate(-7 -6)" fill="#2062b3"/>
</svg>
