<svg xmlns="http://www.w3.org/2000/svg" width="21.262" height="17.269" viewBox="0 0 21.262 17.269">
  <path id="Icon_awesome-twitter" data-name="Icon awesome-twitter" d="M19.077,7.684c.013.189.013.378.013.567a12.313,12.313,0,0,1-12.4,12.4A12.314,12.314,0,0,1,0,18.693a9.015,9.015,0,0,0,1.052.054,8.727,8.727,0,0,0,5.41-1.862,4.365,4.365,0,0,1-4.074-3.022,5.5,5.5,0,0,0,.823.067,4.609,4.609,0,0,0,1.147-.148A4.358,4.358,0,0,1,.863,9.506V9.452A4.389,4.389,0,0,0,2.833,10,4.364,4.364,0,0,1,1.484,4.177a12.386,12.386,0,0,0,8.985,4.56,4.919,4.919,0,0,1-.108-1A4.362,4.362,0,0,1,17.9,4.757,8.579,8.579,0,0,0,20.669,3.7a4.346,4.346,0,0,1-1.916,2.4,8.736,8.736,0,0,0,2.509-.675,9.367,9.367,0,0,1-2.186,2.253Z" transform="translate(0 -3.381)" fill="#e66f07"/>
</svg>
