<svg xmlns="http://www.w3.org/2000/svg" width="20.783" height="20.783" viewBox="0 0 20.783 20.783">
  <path id="Icon_awesome-whatsapp" data-name="Icon awesome-whatsapp" d="M17.67,5.27A10.3,10.3,0,0,0,1.461,17.7L0,23.033,5.46,21.6a10.267,10.267,0,0,0,4.922,1.253h0a10.4,10.4,0,0,0,10.4-10.3A10.339,10.339,0,0,0,17.67,5.27ZM10.387,21.117a8.545,8.545,0,0,1-4.361-1.192l-.311-.186-3.238.849.863-3.159-.2-.325a8.576,8.576,0,1,1,15.907-4.551A8.655,8.655,0,0,1,10.387,21.117Zm4.695-6.411c-.255-.13-1.522-.752-1.758-.835s-.408-.13-.58.13-.663.835-.816,1.011-.3.195-.557.065a7,7,0,0,1-3.5-3.062c-.264-.455.264-.422.756-1.406a.477.477,0,0,0-.023-.45c-.065-.13-.58-1.4-.793-1.911s-.422-.431-.58-.441S6.907,7.8,6.736,7.8a.953.953,0,0,0-.687.32,2.892,2.892,0,0,0-.9,2.148A5.041,5.041,0,0,0,6.2,12.929a11.5,11.5,0,0,0,4.4,3.887,5.035,5.035,0,0,0,3.09.645,2.636,2.636,0,0,0,1.735-1.225,2.152,2.152,0,0,0,.148-1.225C15.508,14.9,15.336,14.831,15.081,14.706Z" transform="translate(0 -2.25)" fill="#e66f07"/>
</svg>
